<?xml version="1.0" encoding="UTF-8" standalone="no"?>
<!DOCTYPE svg PUBLIC "-//W3C//DTD SVG 1.1//EN"
 "http://www.w3.org/Graphics/SVG/1.1/DTD/svg11.dtd">
<!-- Generated by graphviz version 2.28.0 (20111028.1807)
 -->
<!-- Title: controllers_diagram Pages: 1 -->
<svg width="824pt" height="792pt"
 viewBox="0.00 0.00 824.38 792.00" xmlns="http://www.w3.org/2000/svg" xmlns:xlink="http://www.w3.org/1999/xlink">
<g id="graph1" class="graph" transform="scale(1 1) rotate(0) translate(4 788)">
<title>controllers_diagram</title>
<polygon fill="white" stroke="white" points="-4,5 -4,-788 821.375,-788 821.375,5 -4,5"/>
<!-- _diagram_info -->
<g id="node1" class="node"><title>_diagram_info</title>
<text text-anchor="start" x="617" y="-153" font-family="Times,serif" font-size="13.00">Controllers diagram</text>
<text text-anchor="start" x="617" y="-137.4" font-family="Times,serif" font-size="13.00">Date: Apr 16 2012 &#45; 16:54</text>
<text text-anchor="start" x="617" y="-121.8" font-family="Times,serif" font-size="13.00">Migration version: 20120415181435</text>
<text text-anchor="start" x="617" y="-106.2" font-family="Times,serif" font-size="13.00">Generated by RailRoady 1.0.7</text>
<text text-anchor="start" x="617" y="-90.6" font-family="Times,serif" font-size="13.00">http://railroady.prestonlee.com</text>
</g>
<!-- ApplicationController -->
<g id="node2" class="node"><title>ApplicationController</title>
<polyline fill="none" stroke="black" points="516,-483.5 694.635,-483.5 "/>
<path fill="none" stroke="black" d="M694.635,-483.5C700.635,-483.5 706.635,-489.5 706.635,-495.5"/>
<polyline fill="none" stroke="black" points="706.635,-495.5 706.635,-687.5 "/>
<path fill="none" stroke="black" d="M706.635,-687.5C706.635,-693.5 700.635,-699.5 694.635,-699.5"/>
<polyline fill="none" stroke="black" points="694.635,-699.5 516,-699.5 "/>
<path fill="none" stroke="black" d="M516,-699.5C510,-699.5 504,-693.5 504,-687.5"/>
<polyline fill="none" stroke="black" points="504,-687.5 504,-495.5 "/>
<path fill="none" stroke="black" d="M504,-495.5C504,-489.5 510,-483.5 516,-483.5"/>
<text text-anchor="middle" x="605.317" y="-681.5" font-family="Times,serif" font-size="14.00">ApplicationController</text>
<polyline fill="none" stroke="black" points="504,-674.7 706.635,-674.7 "/>
<text text-anchor="start" x="512" y="-656.7" font-family="Times,serif" font-size="14.00">_one_time_conditions_valid_76?</text>
<polyline fill="none" stroke="black" points="504,-649.9 706.635,-649.9 "/>
<polyline fill="none" stroke="black" points="504,-625.9 706.635,-625.9 "/>
<text text-anchor="start" x="512" y="-607.9" font-family="Times,serif" font-size="14.00">_layout</text>
<text text-anchor="start" x="512" y="-591.1" font-family="Times,serif" font-size="14.00">_run_process_action_callbacks</text>
<text text-anchor="start" x="512" y="-574.3" font-family="Times,serif" font-size="14.00">current_user</text>
<text text-anchor="start" x="512" y="-557.5" font-family="Times,serif" font-size="14.00">current_user_session</text>
<text text-anchor="start" x="512" y="-540.7" font-family="Times,serif" font-size="14.00">redirect_back_or_default</text>
<text text-anchor="start" x="512" y="-523.9" font-family="Times,serif" font-size="14.00">require_no_user</text>
<text text-anchor="start" x="512" y="-507.1" font-family="Times,serif" font-size="14.00">require_user</text>
<text text-anchor="start" x="512" y="-490.3" font-family="Times,serif" font-size="14.00">store_location</text>
</g>
<!-- ContactsController -->
<g id="node3" class="node"><title>ContactsController</title>
<polyline fill="none" stroke="black" points="264,-525.5 442.635,-525.5 "/>
<path fill="none" stroke="black" d="M442.635,-525.5C448.635,-525.5 454.635,-531.5 454.635,-537.5"/>
<polyline fill="none" stroke="black" points="454.635,-537.5 454.635,-746.3 "/>
<path fill="none" stroke="black" d="M454.635,-746.3C454.635,-752.3 448.635,-758.3 442.635,-758.3"/>
<polyline fill="none" stroke="black" points="442.635,-758.3 264,-758.3 "/>
<path fill="none" stroke="black" d="M264,-758.3C258,-758.3 252,-752.3 252,-746.3"/>
<polyline fill="none" stroke="black" points="252,-746.3 252,-537.5 "/>
<path fill="none" stroke="black" d="M252,-537.5C252,-531.5 258,-525.5 264,-525.5"/>
<text text-anchor="middle" x="353.317" y="-740.3" font-family="Times,serif" font-size="14.00">ContactsController</text>
<polyline fill="none" stroke="black" points="252,-733.5 454.635,-733.5 "/>
<text text-anchor="start" x="260" y="-715.5" font-family="Times,serif" font-size="14.00">_one_time_conditions_valid_94?</text>
<text text-anchor="start" x="260" y="-698.7" font-family="Times,serif" font-size="14.00">create</text>
<text text-anchor="start" x="260" y="-681.9" font-family="Times,serif" font-size="14.00">destroy</text>
<text text-anchor="start" x="260" y="-665.1" font-family="Times,serif" font-size="14.00">edit</text>
<text text-anchor="start" x="260" y="-648.3" font-family="Times,serif" font-size="14.00">index</text>
<text text-anchor="start" x="260" y="-631.5" font-family="Times,serif" font-size="14.00">new</text>
<text text-anchor="start" x="260" y="-614.7" font-family="Times,serif" font-size="14.00">show</text>
<text text-anchor="start" x="260" y="-597.9" font-family="Times,serif" font-size="14.00">update</text>
<polyline fill="none" stroke="black" points="252,-591.1 454.635,-591.1 "/>
<polyline fill="none" stroke="black" points="252,-567.1 454.635,-567.1 "/>
<text text-anchor="start" x="260" y="-549.1" font-family="Times,serif" font-size="14.00">_layout</text>
<text text-anchor="start" x="260" y="-532.3" font-family="Times,serif" font-size="14.00">_run_process_action_callbacks</text>
</g>
<!-- DashboardController -->
<g id="node4" class="node"><title>DashboardController</title>
<polyline fill="none" stroke="black" points="12,-0.5 122.193,-0.5 "/>
<path fill="none" stroke="black" d="M122.193,-0.5C128.193,-0.5 134.193,-6.5 134.193,-12.5"/>
<polyline fill="none" stroke="black" points="134.193,-12.5 134.193,-86.9 "/>
<path fill="none" stroke="black" d="M134.193,-86.9C134.193,-92.9 128.193,-98.9 122.193,-98.9"/>
<polyline fill="none" stroke="black" points="122.193,-98.9 12,-98.9 "/>
<path fill="none" stroke="black" d="M12,-98.9C6,-98.9 0,-92.9 0,-86.9"/>
<polyline fill="none" stroke="black" points="0,-86.9 0,-12.5 "/>
<path fill="none" stroke="black" d="M0,-12.5C0,-6.5 6,-0.5 12,-0.5"/>
<text text-anchor="middle" x="67.0967" y="-80.9" font-family="Times,serif" font-size="14.00">DashboardController</text>
<polyline fill="none" stroke="black" points="0,-74.1 134.193,-74.1 "/>
<text text-anchor="start" x="8" y="-56.1" font-family="Times,serif" font-size="14.00">show</text>
<polyline fill="none" stroke="black" points="0,-49.3 134.193,-49.3 "/>
<polyline fill="none" stroke="black" points="0,-25.3 134.193,-25.3 "/>
<text text-anchor="start" x="8" y="-7.3" font-family="Times,serif" font-size="14.00">_layout</text>
</g>
<!-- InvoicesController -->
<g id="node5" class="node"><title>InvoicesController</title>
<polyline fill="none" stroke="black" points="264,-210.5 449.122,-210.5 "/>
<path fill="none" stroke="black" d="M449.122,-210.5C455.122,-210.5 461.122,-216.5 461.122,-222.5"/>
<polyline fill="none" stroke="black" points="461.122,-222.5 461.122,-481.7 "/>
<path fill="none" stroke="black" d="M461.122,-481.7C461.122,-487.7 455.122,-493.7 449.122,-493.7"/>
<polyline fill="none" stroke="black" points="449.122,-493.7 264,-493.7 "/>
<path fill="none" stroke="black" d="M264,-493.7C258,-493.7 252,-487.7 252,-481.7"/>
<polyline fill="none" stroke="black" points="252,-481.7 252,-222.5 "/>
<path fill="none" stroke="black" d="M252,-222.5C252,-216.5 258,-210.5 264,-210.5"/>
<text text-anchor="middle" x="356.561" y="-475.7" font-family="Times,serif" font-size="14.00">InvoicesController</text>
<polyline fill="none" stroke="black" points="252,-468.9 461.122,-468.9 "/>
<text text-anchor="start" x="260" y="-450.9" font-family="Times,serif" font-size="14.00">_one_time_conditions_valid_116?</text>
<text text-anchor="start" x="260" y="-434.1" font-family="Times,serif" font-size="14.00">client_show</text>
<text text-anchor="start" x="260" y="-417.3" font-family="Times,serif" font-size="14.00">create</text>
<text text-anchor="start" x="260" y="-400.5" font-family="Times,serif" font-size="14.00">dashboard</text>
<text text-anchor="start" x="260" y="-383.7" font-family="Times,serif" font-size="14.00">destroy</text>
<text text-anchor="start" x="260" y="-366.9" font-family="Times,serif" font-size="14.00">edit</text>
<text text-anchor="start" x="260" y="-350.1" font-family="Times,serif" font-size="14.00">index</text>
<text text-anchor="start" x="260" y="-333.3" font-family="Times,serif" font-size="14.00">new</text>
<text text-anchor="start" x="260" y="-316.5" font-family="Times,serif" font-size="14.00">send_invoice_notification</text>
<text text-anchor="start" x="260" y="-299.7" font-family="Times,serif" font-size="14.00">show</text>
<text text-anchor="start" x="260" y="-282.9" font-family="Times,serif" font-size="14.00">update</text>
<polyline fill="none" stroke="black" points="252,-276.1 461.122,-276.1 "/>
<polyline fill="none" stroke="black" points="252,-252.1 461.122,-252.1 "/>
<text text-anchor="start" x="260" y="-234.1" font-family="Times,serif" font-size="14.00">_layout</text>
<text text-anchor="start" x="260" y="-217.3" font-family="Times,serif" font-size="14.00">_run_process_action_callbacks</text>
</g>
<!-- ItemsController -->
<g id="node6" class="node"><title>ItemsController</title>
<polyline fill="none" stroke="black" points="516,-210.5 701.635,-210.5 "/>
<path fill="none" stroke="black" d="M701.635,-210.5C707.635,-210.5 713.635,-216.5 713.635,-222.5"/>
<polyline fill="none" stroke="black" points="713.635,-222.5 713.635,-431.3 "/>
<path fill="none" stroke="black" d="M713.635,-431.3C713.635,-437.3 707.635,-443.3 701.635,-443.3"/>
<polyline fill="none" stroke="black" points="701.635,-443.3 516,-443.3 "/>
<path fill="none" stroke="black" d="M516,-443.3C510,-443.3 504,-437.3 504,-431.3"/>
<polyline fill="none" stroke="black" points="504,-431.3 504,-222.5 "/>
<path fill="none" stroke="black" d="M504,-222.5C504,-216.5 510,-210.5 516,-210.5"/>
<text text-anchor="middle" x="608.817" y="-425.3" font-family="Times,serif" font-size="14.00">ItemsController</text>
<polyline fill="none" stroke="black" points="504,-418.5 713.635,-418.5 "/>
<text text-anchor="start" x="512" y="-400.5" font-family="Times,serif" font-size="14.00">_one_time_conditions_valid_122?</text>
<text text-anchor="start" x="512" y="-383.7" font-family="Times,serif" font-size="14.00">create</text>
<text text-anchor="start" x="512" y="-366.9" font-family="Times,serif" font-size="14.00">destroy</text>
<text text-anchor="start" x="512" y="-350.1" font-family="Times,serif" font-size="14.00">edit</text>
<text text-anchor="start" x="512" y="-333.3" font-family="Times,serif" font-size="14.00">index</text>
<text text-anchor="start" x="512" y="-316.5" font-family="Times,serif" font-size="14.00">new</text>
<text text-anchor="start" x="512" y="-299.7" font-family="Times,serif" font-size="14.00">show</text>
<text text-anchor="start" x="512" y="-282.9" font-family="Times,serif" font-size="14.00">update</text>
<polyline fill="none" stroke="black" points="504,-276.1 713.635,-276.1 "/>
<polyline fill="none" stroke="black" points="504,-252.1 713.635,-252.1 "/>
<text text-anchor="start" x="512" y="-234.1" font-family="Times,serif" font-size="14.00">_layout</text>
<text text-anchor="start" x="512" y="-217.3" font-family="Times,serif" font-size="14.00">_run_process_action_callbacks</text>
</g>
<!-- PaymentNotificationsController -->
<g id="node7" class="node"><title>PaymentNotificationsController</title>
<polyline fill="none" stroke="black" points="369,-42.5 554.635,-42.5 "/>
<path fill="none" stroke="black" d="M554.635,-42.5C560.635,-42.5 566.635,-48.5 566.635,-54.5"/>
<polyline fill="none" stroke="black" points="566.635,-54.5 566.635,-162.5 "/>
<path fill="none" stroke="black" d="M566.635,-162.5C566.635,-168.5 560.635,-174.5 554.635,-174.5"/>
<polyline fill="none" stroke="black" points="554.635,-174.5 369,-174.5 "/>
<path fill="none" stroke="black" d="M369,-174.5C363,-174.5 357,-168.5 357,-162.5"/>
<polyline fill="none" stroke="black" points="357,-162.5 357,-54.5 "/>
<path fill="none" stroke="black" d="M357,-54.5C357,-48.5 363,-42.5 369,-42.5"/>
<text text-anchor="middle" x="461.817" y="-156.5" font-family="Times,serif" font-size="14.00">PaymentNotificationsController</text>
<polyline fill="none" stroke="black" points="357,-149.7 566.635,-149.7 "/>
<text text-anchor="start" x="365" y="-131.7" font-family="Times,serif" font-size="14.00">_one_time_conditions_valid_130?</text>
<text text-anchor="start" x="365" y="-114.9" font-family="Times,serif" font-size="14.00">create</text>
<polyline fill="none" stroke="black" points="357,-108.1 566.635,-108.1 "/>
<polyline fill="none" stroke="black" points="357,-84.1 566.635,-84.1 "/>
<text text-anchor="start" x="365" y="-66.1" font-family="Times,serif" font-size="14.00">_layout</text>
<text text-anchor="start" x="365" y="-49.3" font-family="Times,serif" font-size="14.00">_run_process_action_callbacks</text>
</g>
<!-- PublicPagesController -->
<g id="node8" class="node"><title>PublicPagesController</title>
<polyline fill="none" stroke="black" points="75,-147.5 192.986,-147.5 "/>
<path fill="none" stroke="black" d="M192.986,-147.5C198.986,-147.5 204.986,-153.5 204.986,-159.5"/>
<polyline fill="none" stroke="black" points="204.986,-159.5 204.986,-301.1 "/>
<path fill="none" stroke="black" d="M204.986,-301.1C204.986,-307.1 198.986,-313.1 192.986,-313.1"/>
<polyline fill="none" stroke="black" points="192.986,-313.1 75,-313.1 "/>
<path fill="none" stroke="black" d="M75,-313.1C69,-313.1 63,-307.1 63,-301.1"/>
<polyline fill="none" stroke="black" points="63,-301.1 63,-159.5 "/>
<path fill="none" stroke="black" d="M63,-159.5C63,-153.5 69,-147.5 75,-147.5"/>
<text text-anchor="middle" x="133.993" y="-295.1" font-family="Times,serif" font-size="14.00">PublicPagesController</text>
<polyline fill="none" stroke="black" points="63,-288.3 204.986,-288.3 "/>
<text text-anchor="start" x="71" y="-270.3" font-family="Times,serif" font-size="14.00">about</text>
<text text-anchor="start" x="71" y="-253.5" font-family="Times,serif" font-size="14.00">contact</text>
<text text-anchor="start" x="71" y="-236.7" font-family="Times,serif" font-size="14.00">features</text>
<text text-anchor="start" x="71" y="-219.9" font-family="Times,serif" font-size="14.00">index</text>
<text text-anchor="start" x="71" y="-203.1" font-family="Times,serif" font-size="14.00">pricing</text>
<polyline fill="none" stroke="black" points="63,-196.3 204.986,-196.3 "/>
<polyline fill="none" stroke="black" points="63,-172.3 204.986,-172.3 "/>
<text text-anchor="start" x="71" y="-154.3" font-family="Times,serif" font-size="14.00">_layout</text>
</g>
<!-- UserSessionsController -->
<g id="node9" class="node"><title>UserSessionsController</title>
<polyline fill="none" stroke="black" points="75,-651.5 199.214,-651.5 "/>
<path fill="none" stroke="black" d="M199.214,-651.5C205.214,-651.5 211.214,-657.5 211.214,-663.5"/>
<polyline fill="none" stroke="black" points="211.214,-663.5 211.214,-771.5 "/>
<path fill="none" stroke="black" d="M211.214,-771.5C211.214,-777.5 205.214,-783.5 199.214,-783.5"/>
<polyline fill="none" stroke="black" points="199.214,-783.5 75,-783.5 "/>
<path fill="none" stroke="black" d="M75,-783.5C69,-783.5 63,-777.5 63,-771.5"/>
<polyline fill="none" stroke="black" points="63,-771.5 63,-663.5 "/>
<path fill="none" stroke="black" d="M63,-663.5C63,-657.5 69,-651.5 75,-651.5"/>
<text text-anchor="middle" x="137.107" y="-765.5" font-family="Times,serif" font-size="14.00">UserSessionsController</text>
<polyline fill="none" stroke="black" points="63,-758.7 211.214,-758.7 "/>
<text text-anchor="start" x="71" y="-740.7" font-family="Times,serif" font-size="14.00">create</text>
<text text-anchor="start" x="71" y="-723.9" font-family="Times,serif" font-size="14.00">destroy</text>
<text text-anchor="start" x="71" y="-707.1" font-family="Times,serif" font-size="14.00">new</text>
<polyline fill="none" stroke="black" points="63,-700.3 211.214,-700.3 "/>
<polyline fill="none" stroke="black" points="63,-676.3 211.214,-676.3 "/>
<text text-anchor="start" x="71" y="-658.3" font-family="Times,serif" font-size="14.00">_layout</text>
</g>
<!-- UsersController -->
<g id="node10" class="node"><title>UsersController</title>
<polyline fill="none" stroke="black" points="117,-357.5 198.428,-357.5 "/>
<path fill="none" stroke="black" d="M198.428,-357.5C204.428,-357.5 210.428,-363.5 210.428,-369.5"/>
<polyline fill="none" stroke="black" points="210.428,-369.5 210.428,-544.7 "/>
<path fill="none" stroke="black" d="M210.428,-544.7C210.428,-550.7 204.428,-556.7 198.428,-556.7"/>
<polyline fill="none" stroke="black" points="198.428,-556.7 117,-556.7 "/>
<path fill="none" stroke="black" d="M117,-556.7C111,-556.7 105,-550.7 105,-544.7"/>
<polyline fill="none" stroke="black" points="105,-544.7 105,-369.5 "/>
<path fill="none" stroke="black" d="M105,-369.5C105,-363.5 111,-357.5 117,-357.5"/>
<text text-anchor="middle" x="157.714" y="-538.7" font-family="Times,serif" font-size="14.00">UsersController</text>
<polyline fill="none" stroke="black" points="105,-531.9 210.428,-531.9 "/>
<text text-anchor="start" x="113" y="-513.9" font-family="Times,serif" font-size="14.00">create</text>
<text text-anchor="start" x="113" y="-497.1" font-family="Times,serif" font-size="14.00">destroy</text>
<text text-anchor="start" x="113" y="-480.3" font-family="Times,serif" font-size="14.00">edit</text>
<text text-anchor="start" x="113" y="-463.5" font-family="Times,serif" font-size="14.00">index</text>
<text text-anchor="start" x="113" y="-446.7" font-family="Times,serif" font-size="14.00">new</text>
<text text-anchor="start" x="113" y="-429.9" font-family="Times,serif" font-size="14.00">show</text>
<text text-anchor="start" x="113" y="-413.1" font-family="Times,serif" font-size="14.00">update</text>
<polyline fill="none" stroke="black" points="105,-406.3 210.428,-406.3 "/>
<polyline fill="none" stroke="black" points="105,-382.3 210.428,-382.3 "/>
<text text-anchor="start" x="113" y="-364.3" font-family="Times,serif" font-size="14.00">_layout</text>
</g>
</g>
</svg>
