<?xml version="1.0" encoding="UTF-8" standalone="no"?>
<!DOCTYPE svg PUBLIC "-//W3C//DTD SVG 1.1//EN"
 "http://www.w3.org/Graphics/SVG/1.1/DTD/svg11.dtd">
<!-- Generated by graphviz version 2.28.0 (20111028.1807)
 -->
<!-- Title: models_diagram Pages: 1 -->
<svg width="726pt" height="310pt"
 viewBox="0.00 0.00 726.00 310.00" xmlns="http://www.w3.org/2000/svg" xmlns:xlink="http://www.w3.org/1999/xlink">
<g id="graph1" class="graph" transform="scale(1 1) rotate(0) translate(4 306)">
<title>models_diagram</title>
<polygon fill="white" stroke="white" points="-4,5 -4,-306 723,-306 723,5 -4,5"/>
<!-- _diagram_info -->
<g id="node1" class="node"><title>_diagram_info</title>
<text text-anchor="start" x="7.31226" y="-285" font-family="Times,serif" font-size="13.00">Models diagram</text>
<text text-anchor="start" x="7.31226" y="-269.4" font-family="Times,serif" font-size="13.00">Date: Apr 16 2012 &#45; 16:54</text>
<text text-anchor="start" x="7.31226" y="-253.8" font-family="Times,serif" font-size="13.00">Migration version: 20120415181435</text>
<text text-anchor="start" x="7.31226" y="-238.2" font-family="Times,serif" font-size="13.00">Generated by RailRoady 1.0.7</text>
<text text-anchor="start" x="7.31226" y="-222.6" font-family="Times,serif" font-size="13.00">http://railroady.prestonlee.com</text>
</g>
<!-- Contact -->
<g id="node2" class="node"><title>Contact</title>
<ellipse fill="none" stroke="black" cx="219" cy="-162" rx="41.1096" ry="18"/>
<text text-anchor="middle" x="219" y="-156.4" font-family="Times,serif" font-size="14.00">Contact</text>
</g>
<!-- Invoice -->
<g id="node3" class="node"><title>Invoice</title>
<ellipse fill="none" stroke="black" cx="253" cy="-90" rx="39.4899" ry="18"/>
<text text-anchor="middle" x="253" y="-84.4" font-family="Times,serif" font-size="14.00">Invoice</text>
</g>
<!-- Contact&#45;&gt;Invoice -->
<g id="edge2" class="edge"><title>Contact&#45;&gt;Invoice</title>
<path fill="none" stroke="#5a5d90" d="M230.796,-136.714C233.911,-130.302 237.283,-123.358 240.437,-116.865"/>
<ellipse fill="none" stroke="#5a5d90" cx="228.978" cy="-140.457" rx="4.00002" ry="4.00002"/>
<polygon fill="#5a5d90" stroke="#5a5d90" points="240.476,-116.784 248.893,-109.755 242.661,-112.287 244.845,-107.789 244.845,-107.789 244.845,-107.789 242.661,-112.287 240.798,-105.823 240.476,-116.784 240.476,-116.784"/>
</g>
<!-- Item -->
<g id="node4" class="node"><title>Item</title>
<ellipse fill="none" stroke="black" cx="253" cy="-18" rx="28.5985" ry="18"/>
<text text-anchor="middle" x="253" y="-12.4" font-family="Times,serif" font-size="14.00">Item</text>
</g>
<!-- Invoice&#45;&gt;Item -->
<g id="edge4" class="edge"><title>Invoice&#45;&gt;Item</title>
<path fill="none" stroke="#428fbd" d="M253,-63.6398C253,-58.0629 253,-52.1319 253,-46.4761"/>
<ellipse fill="none" stroke="#428fbd" cx="253" cy="-67.6966" rx="4" ry="4"/>
<polygon fill="#428fbd" stroke="#428fbd" points="253,-46.1043 257.5,-36.1043 253,-41.1043 253,-36.1043 253,-36.1043 253,-36.1043 253,-41.1043 248.5,-36.1044 253,-46.1043 253,-46.1043"/>
</g>
<!-- PaymentNotification -->
<g id="node5" class="node"><title>PaymentNotification</title>
<ellipse fill="none" stroke="black" cx="392" cy="-259" rx="90.4487" ry="18"/>
<text text-anchor="middle" x="392" y="-253.4" font-family="Times,serif" font-size="14.00">PaymentNotification</text>
</g>
<!-- User -->
<g id="node6" class="node"><title>User</title>
<ellipse fill="none" stroke="black" cx="254" cy="-259" rx="28.9087" ry="18"/>
<text text-anchor="middle" x="254" y="-253.4" font-family="Times,serif" font-size="14.00">User</text>
</g>
<!-- User&#45;&gt;Contact -->
<g id="edge8" class="edge"><title>User&#45;&gt;Contact</title>
<path fill="none" stroke="#0488b1" d="M244.87,-233.218C239.888,-219.697 233.723,-202.964 228.661,-189.224"/>
<ellipse fill="none" stroke="#0488b1" cx="246.36" cy="-237.263" rx="4.00001" ry="4.00001"/>
<polygon fill="#0488b1" stroke="#0488b1" points="228.66,-189.22 229.426,-178.281 226.932,-184.529 225.203,-179.837 225.203,-179.837 225.203,-179.837 226.932,-184.529 220.981,-181.393 228.66,-189.22 228.66,-189.22"/>
</g>
<!-- User&#45;&gt;Invoice -->
<g id="edge6" class="edge"><title>User&#45;&gt;Invoice</title>
<path fill="none" stroke="#6f8ac5" d="M261.276,-233.047C267.07,-209.93 273.519,-174.603 269,-144 267.702,-135.212 265.256,-125.862 262.66,-117.5"/>
<ellipse fill="none" stroke="#6f8ac5" cx="260.209" cy="-237.112" rx="4.00001" ry="4.00001"/>
<polygon fill="#6f8ac5" stroke="#6f8ac5" points="262.624,-117.391 263.759,-106.484 261.055,-112.643 259.486,-107.896 259.486,-107.896 259.486,-107.896 261.055,-112.643 255.213,-109.308 262.624,-117.391 262.624,-117.391"/>
</g>
<!-- UserSession -->
<g id="node7" class="node"><title>UserSession</title>
<polygon fill="none" stroke="black" points="652.415,-180 567.585,-180 567.585,-144 652.415,-144 652.415,-180"/>
<text text-anchor="middle" x="610" y="-156.4" font-family="Times,serif" font-size="14.00">UserSession</text>
</g>
<!-- Authlogic::Session::Base -->
<g id="node12" class="node"><title>Authlogic::Session::Base</title>
<ellipse fill="none" stroke="black" cx="610" cy="-259" rx="108.514" ry="18"/>
<text text-anchor="middle" x="610" y="-253.4" font-family="Times,serif" font-size="14.00">Authlogic::Session::Base</text>
</g>
<!-- Authlogic::Session::Base&#45;&gt;UserSession -->
<g id="edge10" class="edge"><title>Authlogic::Session::Base&#45;&gt;UserSession</title>
<path fill="none" stroke="black" d="M610,-240.576C610,-223.434 610,-197.417 610,-180.314"/>
</g>
</g>
</svg>
