<?xml version="1.0" encoding="UTF-8" standalone="no"?>
<!DOCTYPE svg PUBLIC "-//W3C//DTD SVG 1.1//EN"
 "http://www.w3.org/Graphics/SVG/1.1/DTD/svg11.dtd">
<!-- Generated by graphviz version 2.28.0 (20111028.1807)
 -->
<!-- Title: models_diagram Pages: 1 -->
<svg width="775pt" height="774pt"
 viewBox="0.00 0.00 775.00 774.00" xmlns="http://www.w3.org/2000/svg" xmlns:xlink="http://www.w3.org/1999/xlink">
<g id="graph1" class="graph" transform="scale(1 1) rotate(0) translate(4 770)">
<title>models_diagram</title>
<polygon fill="white" stroke="white" points="-4,5 -4,-770 772,-770 772,5 -4,5"/>
<!-- _diagram_info -->
<g id="node1" class="node"><title>_diagram_info</title>
<text text-anchor="start" x="7.31226" y="-716" font-family="Times,serif" font-size="13.00">Models diagram</text>
<text text-anchor="start" x="7.31226" y="-700.4" font-family="Times,serif" font-size="13.00">Date: Apr 16 2012 &#45; 16:53</text>
<text text-anchor="start" x="7.31226" y="-684.8" font-family="Times,serif" font-size="13.00">Migration version: 20120415181435</text>
<text text-anchor="start" x="7.31226" y="-669.2" font-family="Times,serif" font-size="13.00">Generated by RailRoady 1.0.7</text>
<text text-anchor="start" x="7.31226" y="-653.6" font-family="Times,serif" font-size="13.00">http://railroady.prestonlee.com</text>
</g>
<!-- Contact -->
<g id="node2" class="node"><title>Contact</title>
<polyline fill="none" stroke="black" points="200.495,-326.4 309.505,-326.4 "/>
<path fill="none" stroke="black" d="M309.505,-326.4C315.505,-326.4 321.505,-332.4 321.505,-338.4"/>
<polyline fill="none" stroke="black" points="321.505,-338.4 321.505,-565.6 "/>
<path fill="none" stroke="black" d="M321.505,-565.6C321.505,-571.6 315.505,-577.6 309.505,-577.6"/>
<polyline fill="none" stroke="black" points="309.505,-577.6 200.495,-577.6 "/>
<path fill="none" stroke="black" d="M200.495,-577.6C194.495,-577.6 188.495,-571.6 188.495,-565.6"/>
<polyline fill="none" stroke="black" points="188.495,-565.6 188.495,-338.4 "/>
<path fill="none" stroke="black" d="M188.495,-338.4C188.495,-332.4 194.495,-326.4 200.495,-326.4"/>
<text text-anchor="middle" x="255" y="-559.6" font-family="Times,serif" font-size="14.00">Contact</text>
<polyline fill="none" stroke="black" points="188.495,-552.8 321.505,-552.8 "/>
<text text-anchor="start" x="196.495" y="-534.8" font-family="Times,serif" font-size="14.00">fname :string</text>
<text text-anchor="start" x="196.495" y="-518" font-family="Times,serif" font-size="14.00">lname :string</text>
<text text-anchor="start" x="196.495" y="-501.2" font-family="Times,serif" font-size="14.00">address :string</text>
<text text-anchor="start" x="196.495" y="-484.4" font-family="Times,serif" font-size="14.00">city :string</text>
<text text-anchor="start" x="196.495" y="-467.6" font-family="Times,serif" font-size="14.00">state :string</text>
<text text-anchor="start" x="196.495" y="-450.8" font-family="Times,serif" font-size="14.00">zip :integer</text>
<text text-anchor="start" x="196.495" y="-434" font-family="Times,serif" font-size="14.00">phone :string</text>
<text text-anchor="start" x="196.495" y="-417.2" font-family="Times,serif" font-size="14.00">mphone :string</text>
<text text-anchor="start" x="196.495" y="-400.4" font-family="Times,serif" font-size="14.00">fax :string</text>
<text text-anchor="start" x="196.495" y="-383.6" font-family="Times,serif" font-size="14.00">email :string</text>
<text text-anchor="start" x="196.495" y="-366.8" font-family="Times,serif" font-size="14.00">bname :string</text>
<text text-anchor="start" x="196.495" y="-350" font-family="Times,serif" font-size="14.00">created_at :datetime</text>
<text text-anchor="start" x="196.495" y="-333.2" font-family="Times,serif" font-size="14.00">updated_at :datetime</text>
</g>
<!-- Invoice -->
<g id="node3" class="node"><title>Invoice</title>
<polyline fill="none" stroke="black" points="247.495,-172.6 356.505,-172.6 "/>
<path fill="none" stroke="black" d="M356.505,-172.6C362.505,-172.6 368.505,-178.6 368.505,-184.6"/>
<polyline fill="none" stroke="black" points="368.505,-184.6 368.505,-277.4 "/>
<path fill="none" stroke="black" d="M368.505,-277.4C368.505,-283.4 362.505,-289.4 356.505,-289.4"/>
<polyline fill="none" stroke="black" points="356.505,-289.4 247.495,-289.4 "/>
<path fill="none" stroke="black" d="M247.495,-289.4C241.495,-289.4 235.495,-283.4 235.495,-277.4"/>
<polyline fill="none" stroke="black" points="235.495,-277.4 235.495,-184.6 "/>
<path fill="none" stroke="black" d="M235.495,-184.6C235.495,-178.6 241.495,-172.6 247.495,-172.6"/>
<text text-anchor="middle" x="302" y="-271.4" font-family="Times,serif" font-size="14.00">Invoice</text>
<polyline fill="none" stroke="black" points="235.495,-264.6 368.505,-264.6 "/>
<text text-anchor="start" x="243.495" y="-246.6" font-family="Times,serif" font-size="14.00">number :integer</text>
<text text-anchor="start" x="243.495" y="-229.8" font-family="Times,serif" font-size="14.00">title :string</text>
<text text-anchor="start" x="243.495" y="-213" font-family="Times,serif" font-size="14.00">created_at :datetime</text>
<text text-anchor="start" x="243.495" y="-196.2" font-family="Times,serif" font-size="14.00">updated_at :datetime</text>
<text text-anchor="start" x="243.495" y="-179.4" font-family="Times,serif" font-size="14.00">status :string</text>
</g>
<!-- Contact&#45;&gt;Invoice -->
<g id="edge2" class="edge"><title>Contact&#45;&gt;Invoice</title>
<path fill="none" stroke="#77f6b7" d="M283.508,-318.167C284.867,-311.833 286.203,-305.608 287.496,-299.583"/>
<ellipse fill="none" stroke="#77f6b7" cx="282.634" cy="-322.236" rx="4.00001" ry="4.00001"/>
<polygon fill="#77f6b7" stroke="#77f6b7" points="287.53,-299.424 294.028,-290.591 288.579,-294.536 289.628,-289.647 289.628,-289.647 289.628,-289.647 288.579,-294.536 285.228,-288.703 287.53,-299.424 287.53,-299.424"/>
</g>
<!-- Item -->
<g id="node4" class="node"><title>Item</title>
<polyline fill="none" stroke="black" points="247.495,-1.2 356.505,-1.2 "/>
<path fill="none" stroke="black" d="M356.505,-1.2C362.505,-1.2 368.505,-7.2 368.505,-13.2"/>
<polyline fill="none" stroke="black" points="368.505,-13.2 368.505,-122.8 "/>
<path fill="none" stroke="black" d="M368.505,-122.8C368.505,-128.8 362.505,-134.8 356.505,-134.8"/>
<polyline fill="none" stroke="black" points="356.505,-134.8 247.495,-134.8 "/>
<path fill="none" stroke="black" d="M247.495,-134.8C241.495,-134.8 235.495,-128.8 235.495,-122.8"/>
<polyline fill="none" stroke="black" points="235.495,-122.8 235.495,-13.2 "/>
<path fill="none" stroke="black" d="M235.495,-13.2C235.495,-7.2 241.495,-1.2 247.495,-1.2"/>
<text text-anchor="middle" x="302" y="-116.8" font-family="Times,serif" font-size="14.00">Item</text>
<polyline fill="none" stroke="black" points="235.495,-110 368.505,-110 "/>
<text text-anchor="start" x="243.495" y="-92" font-family="Times,serif" font-size="14.00">description :text</text>
<text text-anchor="start" x="243.495" y="-75.2" font-family="Times,serif" font-size="14.00">unit_cost :decimal</text>
<text text-anchor="start" x="243.495" y="-58.4" font-family="Times,serif" font-size="14.00">quantity :integer</text>
<text text-anchor="start" x="243.495" y="-41.6" font-family="Times,serif" font-size="14.00">discount :decimal</text>
<text text-anchor="start" x="243.495" y="-24.8" font-family="Times,serif" font-size="14.00">created_at :datetime</text>
<text text-anchor="start" x="243.495" y="-8" font-family="Times,serif" font-size="14.00">updated_at :datetime</text>
</g>
<!-- Invoice&#45;&gt;Item -->
<g id="edge4" class="edge"><title>Invoice&#45;&gt;Item</title>
<path fill="none" stroke="#e67bbe" d="M302,-164.301C302,-157.964 302,-151.5 302,-145.074"/>
<ellipse fill="none" stroke="#e67bbe" cx="302" cy="-168.33" rx="4" ry="4"/>
<polygon fill="#e67bbe" stroke="#e67bbe" points="302,-145.031 306.5,-135.031 302,-140.031 302,-135.031 302,-135.031 302,-135.031 302,-140.031 297.5,-135.031 302,-145.031 302,-145.031"/>
</g>
<!-- PaymentNotification -->
<g id="node5" class="node"><title>PaymentNotification</title>
<polyline fill="none" stroke="black" points="411.495,-640 520.505,-640 "/>
<path fill="none" stroke="black" d="M520.505,-640C526.505,-640 532.505,-646 532.505,-652"/>
<polyline fill="none" stroke="black" points="532.505,-652 532.505,-728 "/>
<path fill="none" stroke="black" d="M532.505,-728C532.505,-734 526.505,-740 520.505,-740"/>
<polyline fill="none" stroke="black" points="520.505,-740 411.495,-740 "/>
<path fill="none" stroke="black" d="M411.495,-740C405.495,-740 399.495,-734 399.495,-728"/>
<polyline fill="none" stroke="black" points="399.495,-728 399.495,-652 "/>
<path fill="none" stroke="black" d="M399.495,-652C399.495,-646 405.495,-640 411.495,-640"/>
<text text-anchor="middle" x="466" y="-722" font-family="Times,serif" font-size="14.00">PaymentNotification</text>
<polyline fill="none" stroke="black" points="399.495,-715.2 532.505,-715.2 "/>
<text text-anchor="start" x="407.495" y="-697.2" font-family="Times,serif" font-size="14.00">params :text</text>
<text text-anchor="start" x="407.495" y="-680.4" font-family="Times,serif" font-size="14.00">status :string</text>
<text text-anchor="start" x="407.495" y="-663.6" font-family="Times,serif" font-size="14.00">created_at :datetime</text>
<text text-anchor="start" x="407.495" y="-646.8" font-family="Times,serif" font-size="14.00">updated_at :datetime</text>
</g>
<!-- User -->
<g id="node6" class="node"><title>User</title>
<polyline fill="none" stroke="black" points="236.429,-614.8 369.571,-614.8 "/>
<path fill="none" stroke="black" d="M369.571,-614.8C375.571,-614.8 381.571,-620.8 381.571,-626.8"/>
<polyline fill="none" stroke="black" points="381.571,-626.8 381.571,-753.2 "/>
<path fill="none" stroke="black" d="M381.571,-753.2C381.571,-759.2 375.571,-765.2 369.571,-765.2"/>
<polyline fill="none" stroke="black" points="369.571,-765.2 236.429,-765.2 "/>
<path fill="none" stroke="black" d="M236.429,-765.2C230.429,-765.2 224.429,-759.2 224.429,-753.2"/>
<polyline fill="none" stroke="black" points="224.429,-753.2 224.429,-626.8 "/>
<path fill="none" stroke="black" d="M224.429,-626.8C224.429,-620.8 230.429,-614.8 236.429,-614.8"/>
<text text-anchor="middle" x="303" y="-747.2" font-family="Times,serif" font-size="14.00">User</text>
<polyline fill="none" stroke="black" points="224.429,-740.4 381.571,-740.4 "/>
<text text-anchor="start" x="232.429" y="-722.4" font-family="Times,serif" font-size="14.00">username :string</text>
<text text-anchor="start" x="232.429" y="-705.6" font-family="Times,serif" font-size="14.00">email :string</text>
<text text-anchor="start" x="232.429" y="-688.8" font-family="Times,serif" font-size="14.00">crypted_password :string</text>
<text text-anchor="start" x="232.429" y="-672" font-family="Times,serif" font-size="14.00">password_salt :string</text>
<text text-anchor="start" x="232.429" y="-655.2" font-family="Times,serif" font-size="14.00">persistence_token :string</text>
<text text-anchor="start" x="232.429" y="-638.4" font-family="Times,serif" font-size="14.00">created_at :datetime</text>
<text text-anchor="start" x="232.429" y="-621.6" font-family="Times,serif" font-size="14.00">updated_at :datetime</text>
</g>
<!-- User&#45;&gt;Contact -->
<g id="edge8" class="edge"><title>User&#45;&gt;Contact</title>
<path fill="none" stroke="#244b55" d="M286.234,-606.566C284.992,-600.459 283.721,-594.213 282.437,-587.901"/>
<ellipse fill="none" stroke="#244b55" cx="287.081" cy="-610.732" rx="4.00001" ry="4.00001"/>
<polygon fill="#244b55" stroke="#244b55" points="282.404,-587.738 284.821,-577.041 281.408,-582.838 280.411,-577.938 280.411,-577.938 280.411,-577.938 281.408,-582.838 276.001,-578.835 282.404,-587.738 282.404,-587.738"/>
</g>
<!-- User&#45;&gt;Invoice -->
<g id="edge6" class="edge"><title>User&#45;&gt;Invoice</title>
<path fill="none" stroke="#628e97" d="M325.353,-606.518C327.26,-596.962 328.884,-587.307 330,-578 343.33,-466.796 346.156,-436.829 330,-326 328.733,-317.308 326.84,-308.302 324.624,-299.461"/>
<ellipse fill="none" stroke="#628e97" cx="324.505" cy="-610.596" rx="4.00001" ry="4.00001"/>
<polygon fill="#628e97" stroke="#628e97" points="324.566,-299.242 326.351,-288.422 323.283,-294.409 322.001,-289.576 322.001,-289.576 322.001,-289.576 323.283,-294.409 317.652,-290.73 324.566,-299.242 324.566,-299.242"/>
</g>
<!-- UserSession -->
<g id="node7" class="node"><title>UserSession</title>
<polygon fill="none" stroke="black" points="616.39,-427.2 616.39,-476.8 701.61,-476.8 701.61,-427.2 616.39,-427.2"/>
<text text-anchor="middle" x="659" y="-458.8" font-family="Times,serif" font-size="14.00">UserSession</text>
<polyline fill="none" stroke="black" points="616.39,-452 701.61,-452 "/>
<text text-anchor="middle" x="659" y="-434" font-family="Times,serif" font-size="14.00"> </text>
</g>
<!-- Authlogic::Session::Base -->
<g id="node12" class="node"><title>Authlogic::Session::Base</title>
<ellipse fill="none" stroke="black" cx="659" cy="-690" rx="108.514" ry="18"/>
<text text-anchor="middle" x="659" y="-684.4" font-family="Times,serif" font-size="14.00">Authlogic::Session::Base</text>
</g>
<!-- Authlogic::Session::Base&#45;&gt;UserSession -->
<g id="edge10" class="edge"><title>Authlogic::Session::Base&#45;&gt;UserSession</title>
<path fill="none" stroke="black" d="M659,-671.646C659,-630.025 659,-524.46 659,-476.889"/>
</g>
</g>
</svg>
